HIERARCHY
ROOT Hips
{
	OFFSET 0.00000 0.00000 0.00000
	CHANNELS 6 Xposition Yposition Zposition Zrotation Yrotation Xrotation 
	JOINT LHipJoint
	{
		OFFSET 0 0 0
		CHANNELS 3 Zrotation Yrotation Xrotation
		JOINT LeftUpLeg
		{
			OFFSET 1.53927 -1.56553 0.51726
			CHANNELS 3 Zrotation Yrotation Xrotation
			JOINT LeftLeg
			{
				OFFSET 2.38199 -6.54447 0.00000
				CHANNELS 3 Zrotation Yrotation Xrotation
				JOINT LeftFoot
				{
					OFFSET 2.35499 -6.47028 0.00000
					CHANNELS 3 Zrotation Yrotation Xrotation
					JOINT LeftToeBase
					{
						OFFSET 0.13641 -0.37478 1.84251
						CHANNELS 3 Zrotation Yrotation Xrotation
						End Site
						{
							OFFSET 0.00000 -0.00000 0.95212
						}
					}
				}
			}
		}
	}
	JOINT RHipJoint
	{
		OFFSET 0 0 0
		CHANNELS 3 Zrotation Yrotation Xrotation
		JOINT RightUpLeg
		{
			OFFSET -1.43919 -1.56553 0.51726
			CHANNELS 3 Zrotation Yrotation Xrotation
			JOINT RightLeg
			{
				OFFSET -2.34860 -6.45274 0.00000
				CHANNELS 3 Zrotation Yrotation Xrotation
				JOINT RightFoot
				{
					OFFSET -2.25563 -6.19730 0.00000
					CHANNELS 3 Zrotation Yrotation Xrotation
					JOINT RightToeBase
					{
						OFFSET -0.19755 -0.54277 1.84912
						CHANNELS 3 Zrotation Yrotation Xrotation
						End Site
						{
							OFFSET -0.00000 -0.00000 0.97032
						}
					}
				}
			}
		}
	}
	JOINT LowerBack
	{
		OFFSET 0 0 0
		CHANNELS 3 Zrotation Yrotation Xrotation
		JOINT Spine
		{
			OFFSET -0.06402 1.88434 -0.00445
			CHANNELS 3 Zrotation Yrotation Xrotation
			JOINT Spine1
			{
				OFFSET 0.00756 1.88511 0.04237
				CHANNELS 3 Zrotation Yrotation Xrotation
				JOINT Neck
				{
					OFFSET 0 0 0
					CHANNELS 3 Zrotation Yrotation Xrotation
					JOINT Neck1
					{
						OFFSET -0.06230 1.34710 0.03308
						CHANNELS 3 Zrotation Yrotation Xrotation
						JOINT Head
						{
							OFFSET -0.02442 1.34501 -0.13654
							CHANNELS 3 Zrotation Yrotation Xrotation
							End Site
							{
								OFFSET -0.00508 1.35584 -0.05075
							}
						}
					}
				}
				JOINT LeftShoulder
				{
					OFFSET 0 0 0
					CHANNELS 3 Zrotation Yrotation Xrotation
					JOINT LeftArm
					{
						OFFSET 2.76911 0.54460 0.39412
						CHANNELS 3 Zrotation Yrotation Xrotation
						JOINT LeftForeArm
						{
							OFFSET 4.40919 -0.00000 -0.00000
							CHANNELS 3 Zrotation Yrotation Xrotation
							JOINT LeftHand
							{
								OFFSET 3.03857 -0.00000 -0.00000
								CHANNELS 3 Zrotation Yrotation Xrotation
								JOINT LeftFingerBase
								{
									OFFSET 0 0 0
									CHANNELS 3 Zrotation Yrotation Xrotation
									JOINT LeftHandIndex1
									{
										OFFSET 0.52321 -0.00000 -0.00000
										CHANNELS 3 Zrotation Yrotation Xrotation
										End Site
										{
											OFFSET 0.42182 -0.00000 -0.00000
										}
									}
								}
								JOINT LThumb
								{
									OFFSET 0 0 0
									CHANNELS 3 Zrotation Yrotation Xrotation
									End Site
									{
										OFFSET 0.42826 -0.00000 0.42826
									}
								}
							}
						}
					}
				}
				JOINT RightShoulder
				{
					OFFSET 0 0 0
					CHANNELS 3 Zrotation Yrotation Xrotation
					JOINT RightArm
					{
						OFFSET -2.99050 0.75949 0.48975
						CHANNELS 3 Zrotation Yrotation Xrotation
						JOINT RightForeArm
						{
							OFFSET -4.61969 -0.00000 -0.00000
							CHANNELS 3 Zrotation Yrotation Xrotation
							JOINT RightHand
							{
								OFFSET -3.09382 -0.00000 -0.00000
								CHANNELS 3 Zrotation Yrotation Xrotation
								JOINT RightFingerBase
								{
									OFFSET 0 0 0
									CHANNELS 3 Zrotation Yrotation Xrotation
									JOINT RightHandIndex1
									{
										OFFSET -0.50090 -0.00000 -0.00000
										CHANNELS 3 Zrotation Yrotation Xrotation
										End Site
										{
											OFFSET -0.40384 -0.00000 -0.00000
										}
									}
								}
								JOINT RThumb
								{
									OFFSET 0 0 0
									CHANNELS 3 Zrotation Yrotation Xrotation
									End Site
									{
										OFFSET -0.41000 -0.00000 0.41000
									}
								}
							}
						}
					}
				}
			}
		}
	}
}
MOTION
Frames: 15
Frame Time: .0083333
2.4399 16.2795 -0.5858 0 0 0 0 0 0 -21 0 0 0 0 0 0 0 0 0 0 0 0 0 0 21 0 0 0 0 0 0 0 0 0 0 0 0 0 0 0 0 0 0 0 0 0 0 -16 0 0 21 0 0 11 0 0 0 -8 0 0 0 0 0 0 0 0 0 0 0 0 0 0 0 0 0 0 0 0 8 0 0 0 0 0 0 0 0 0 0 0 0 0 0 0 0 0
2.4399 16.2795 -0.5858 125.7850 -88.2630 -118.2240 0.0000 0.0000 0.0000 -20.4224 -24.6801 -0.9357 1.1882 6.9173 19.4706 -1.4912 23.9040 -21.4752 1.0535 6.5267 18.3204 0.0000 0.0000 0.0000 17.1804 20.8923 -2.1049 -0.9320 -6.1496 17.2190 -0.5954 -10.6371 -22.0702 -0.4313 -4.2145 11.6810 -2.6959 0.2097 -5.2786 0.1041 0.1835 -5.8122 1.6258 0.1184 -3.0513 -0.7726 -0.7122 -3.6023 -3.6086 -0.7542 20.9877 -1.1169 -0.9455 6.9780 0.0000 -0.0000 0.0000 -94.4364 18.6531 8.2764 19.8512 -30.4627 -5.4557 -0.0000 -0.0000 16.1845 23.0978 -13.7097 -5.7718 -7.1250 0.0000 -0.0000 -2.9431 15.1396 2.0751 0.0000 -0.0000 0.0000 89.7812 -15.4914 15.8560 -15.8888 25.3696 -3.5982 0.0000 0.0000 9.8920 -16.5462 -48.0711 12.4636 7.1250 -0.0000 -0.0000 46.2637 -75.2794 -34.5434
2.4349 16.2808 -0.5896 127.7080 -88.3006 -120.1620 0.0000 0.0000 0.0000 -20.3486 -24.7476 -0.9051 1.1947 6.9355 19.5244 -1.4711 23.8704 -21.6377 1.1305 6.7531 18.9859 0.0000 0.0000 0.0000 17.2919 20.9158 -2.0157 -0.9220 -6.1175 17.1257 -0.5875 -10.7132 -22.0703 -0.4223 -4.1710 11.5583 -2.6622 0.2161 -5.3908 0.1182 0.1984 -5.7379 1.6222 0.1234 -2.9116 -0.7751 -0.7193 -3.6913 -3.5796 -0.7630 20.9473 -1.1077 -0.9453 6.9807 -0.0000 0.0000 0.0000 -94.3421 18.5208 8.3925 19.7252 -30.3099 -5.3920 -0.0000 -0.0000 16.1262 23.2479 -13.7588 -5.8338 -7.1250 0.0000 -0.0000 -2.8431 15.0700 2.0087 -0.0000 0.0000 0.0000 89.8026 -15.4401 15.7770 -15.9292 25.4246 -3.6155 0.0000 0.0000 10.1631 -17.5225 -47.3292 13.0693 7.1250 -0.0000 -0.0000 43.0396 -75.2000 -31.8784
2.4328 16.2808 -0.5898 128.8980 -88.3751 -121.4090 0.0000 0.0000 0.0000 -20.2709 -24.7020 -0.8683 1.2010 6.9532 19.5769 -1.4116 23.6721 -21.8609 1.2037 6.9608 19.5993 0.0000 0.0000 0.0000 17.4154 20.8325 -1.9420 -0.9182 -6.1052 17.0900 -0.5699 -10.7851 -21.9763 -0.3775 -3.9462 10.9254 -2.5774 0.2400 -5.3598 0.1260 0.2286 -5.7191 1.5833 0.1360 -2.9098 -0.7730 -0.7413 -3.7311 -3.5683 -0.7950 21.0147 -1.1079 -0.9616 7.0092 0.0000 -0.0000 0.0000 -94.3229 18.5208 8.4053 19.7071 -30.2879 -5.3828 -0.0000 -0.0000 16.2790 23.2878 -13.8313 -5.8749 -7.1250 0.0000 -0.0000 -2.8201 14.9876 1.9973 0.0000 -0.0000 0.0000 89.8287 -15.4900 15.7517 -15.9338 25.4307 -3.6175 0.0000 0.0000 10.1394 -17.3887 -47.2484 12.9505 7.1250 -0.0000 -0.0000 42.9256 -75.0973 -31.7018
2.4344 16.2790 -0.5865 129.2250 -88.3699 -121.7650 0.0000 0.0000 0.0000 -20.2896 -24.5285 -0.9024 1.2049 6.9639 19.6086 -1.4170 23.6454 -21.7285 1.1496 6.8081 19.1480 0.0000 0.0000 0.0000 17.3848 20.5937 -1.9858 -0.9152 -6.0955 17.0618 -0.5568 -10.6376 -21.7044 -0.3610 -3.8600 10.6831 -2.5340 0.2675 -5.2928 0.1118 0.2624 -5.7225 1.5450 0.1519 -2.9517 -0.7634 -0.7645 -3.7904 -3.6065 -0.8200 21.1084 -1.1255 -0.9790 7.0495 0.0000 -0.0000 0.0000 -94.3114 18.5387 8.4716 19.7461 -30.3352 -5.4025 -0.0000 -0.0000 16.2632 23.1506 -13.6887 -5.7778 -7.1250 0.0000 -0.0000 -2.9058 15.1563 2.0477 0.0000 -0.0000 0.0000 89.8500 -15.4986 15.6640 -15.8778 25.3546 -3.5935 0.0000 0.0000 10.1971 -15.9631 -47.9007 11.9828 7.1250 -0.0000 -0.0000 46.2612 -74.9536 -34.2540
2.4341 16.2780 -0.5846 129.4690 -88.3414 -122.0200 0.0000 0.0000 0.0000 -20.3239 -24.4318 -0.9396 1.2091 6.9758 19.6438 -1.4441 23.7021 -21.5387 1.0719 6.5813 18.4808 0.0000 0.0000 0.0000 17.3329 20.4140 -2.0252 -0.9110 -6.0819 17.0223 -0.5598 -10.4688 -21.5659 -0.3797 -3.9574 10.9569 -2.5181 0.2591 -5.3140 0.1050 0.2528 -5.6899 1.5290 0.1461 -2.9052 -0.7436 -0.7501 -3.8295 -3.6387 -0.7936 21.0803 -1.1373 -0.9664 7.0474 -0.0000 0.0000 0.0000 -94.3421 18.5259 8.4288 19.7940 -30.3933 -5.4267 -0.0000 -0.0000 16.1307 23.0061 -13.5638 -5.6868 -7.1250 0.0000 -0.0000 -2.9978 15.3065 2.1030 -0.0000 0.0000 0.0000 89.8234 -15.4145 15.6938 -15.8398 25.3029 -3.5772 0.0000 0.0000 10.1682 -15.3514 -48.3366 11.5903 7.1250 -0.0000 -0.0000 48.1648 -74.9746 -35.8190
2.4308 16.2792 -0.5858 129.6380 -88.3536 -122.2070 0.0000 0.0000 0.0000 -20.2995 -24.4000 -0.9317 1.2094 6.9766 19.6461 -1.3989 23.5363 -21.6740 1.0927 6.6430 18.6619 0.0000 0.0000 0.0000 17.3684 20.4719 -1.9701 -0.9100 -6.0788 17.0133 -0.5758 -10.4730 -21.7238 -0.4023 -4.0720 11.2794 -2.5231 0.2255 -5.3859 0.1241 0.2126 -5.6462 1.5507 0.1255 -2.8177 -0.7171 -0.7161 -3.8442 -3.6466 -0.7460 21.0242 -1.1402 -0.9402 7.0323 -0.0000 -0.0000 0.0000 -94.4293 18.5288 8.2590 19.8240 -30.4297 -5.4419 -0.0000 -0.0000 16.0780 23.0211 -13.7618 -5.7719 -7.1250 0.0000 -0.0000 -2.9985 15.0922 2.1173 -0.0000 -0.0000 0.0000 89.7626 -15.3864 15.9092 -15.8543 25.3226 -3.5834 0.0000 0.0000 9.8711 -15.8135 -48.2066 11.9234 7.1250 -0.0000 -0.0000 47.3491 -75.0768 -35.2463
2.4269 16.2801 -0.5902 128.3930 -88.4469 -120.9970 0.0000 0.0000 0.0000 -20.1973 -24.3175 -0.9280 1.2062 6.9676 19.6193 -1.3299 23.2557 -21.8150 1.1213 6.7265 18.9077 0.0000 0.0000 0.0000 17.5144 20.7055 -1.8047 -0.9119 -6.0848 17.0306 -0.5675 -10.7580 -21.9261 -0.3950 -4.0352 11.1758 -2.5320 0.2062 -5.3681 0.1512 0.1864 -5.6633 1.5829 0.1136 -2.8446 -0.7045 -0.7049 -3.8084 -3.6460 -0.7337 21.0290 -1.1411 -0.9336 7.0276 -0.0000 0.0000 0.0000 -94.4279 18.5991 8.2300 19.8124 -30.4157 -5.4360 -0.0000 -0.0000 16.0949 23.0517 -13.9824 -5.8706 -7.1250 0.0000 -0.0000 -2.9901 14.8521 2.1267 -0.0000 0.0000 0.0000 89.7517 -15.5227 16.0428 -15.8732 25.3484 -3.5915 0.0000 0.0000 9.4758 -16.6119 -47.8215 12.4667 7.1250 -0.0000 -0.0000 45.4200 -75.1550 -33.7512
2.4279 16.2799 -0.5954 123.1540 -88.5359 -115.7330 0.0000 0.0000 0.0000 -20.0921 -24.1106 -1.0910 1.2031 6.9590 19.5939 -1.2193 22.7751 -21.9807 1.2407 7.0631 19.9025 0.0000 0.0000 0.0000 17.5735 20.8559 -1.7360 -0.9130 -6.0883 17.0409 -0.5447 -11.0607 -22.0142 -0.3865 -3.9925 11.0554 -2.6126 0.1728 -5.3215 0.1652 0.1408 -5.7147 1.6411 0.0947 -2.9229 -0.6468 -0.7209 -3.8194 -3.7672 -0.7408 21.1177 -1.1921 -0.9460 7.0573 -0.0000 -0.0000 0.0000 -94.4089 18.6544 8.2515 19.8137 -30.4173 -5.4367 -0.0000 -0.0000 15.9820 22.9530 -14.0421 -5.8670 -7.1250 0.0000 -0.0000 -3.0608 14.7992 2.1806 -0.0000 -0.0000 0.0000 89.7567 -15.6146 15.9921 -15.8820 25.3605 -3.5953 0.0000 0.0000 9.3783 -17.3872 -47.3398 12.9678 7.1250 -0.0000 -0.0000 43.2038 -75.1548 -31.9717
2.4299 16.2783 -0.5985 119.3130 -88.5516 -111.8520 0.0000 0.0000 0.0000 -20.0466 -23.9799 -1.2213 1.1994 6.9486 19.5633 -1.2957 22.8797 -21.3108 1.0598 6.5454 18.3754 0.0000 0.0000 0.0000 17.5524 20.8828 -1.7713 -0.9151 -6.0952 17.0608 -0.5419 -11.1513 -22.0800 -0.3816 -3.9669 10.9837 -2.7057 0.1413 -5.3144 0.1741 0.1009 -5.7260 1.7014 0.0784 -2.9376 -0.6042 -0.7285 -3.9115 -3.8372 -0.7399 21.1962 -1.2238 -0.9506 7.0986 -0.0000 0.0000 0.0000 -94.4509 18.6606 8.1735 19.8204 -30.4254 -5.4401 -0.0000 -0.0000 15.8466 22.8310 -13.9345 -5.7890 -7.1250 0.0000 -0.0000 -3.1381 14.9284 2.2272 -0.0000 0.0000 0.0000 89.7202 -15.5590 15.9592 -15.8814 25.3595 -3.5950 0.0000 0.0000 9.5242 -18.1418 -46.7930 13.4321 7.1250 -0.0000 -0.0000 40.8175 -75.0900 -30.0258
2.4295 16.2771 -0.5996 117.1070 -88.5762 -109.6710 0.0000 0.0000 0.0000 -20.0255 -23.9051 -1.2112 1.1940 6.9335 19.5184 -1.2705 22.7194 -21.2299 1.0565 6.5354 18.3460 0.0000 0.0000 0.0000 17.5758 20.8971 -1.7374 -0.9197 -6.1101 17.1043 -0.5582 -11.1397 -22.2209 -0.4038 -4.0797 11.3011 -2.7187 0.1349 -5.2743 0.1637 0.0924 -5.7157 1.6978 0.0749 -2.9489 -0.6484 -0.7344 -3.9226 -3.7183 -0.7630 21.1392 -1.1785 -0.9525 7.0825 0.0000 -0.0000 0.0000 -94.4369 18.6597 8.1657 19.8409 -30.4502 -5.4505 -0.0000 -0.0000 15.9248 22.8165 -13.4346 -5.5826 -7.1250 0.0000 -0.0000 -3.1210 15.4659 2.1790 0.0000 -0.0000 0.0000 89.7248 -15.5707 15.9635 -15.9328 25.4294 -3.6170 0.0000 0.0000 9.5778 -18.3501 -46.6126 13.5524 7.1250 -0.0000 -0.0000 40.0763 -75.0494 -29.4106
2.4280 16.2777 -0.5997 114.1370 -88.5581 -106.7120 0.0000 0.0000 0.0000 -20.0485 -23.7482 -1.2574 1.1907 6.9243 19.4914 -1.2484 22.5447 -21.0792 1.0218 6.4306 18.0390 0.0000 0.0000 0.0000 17.5328 20.8970 -1.7157 -0.9223 -6.1184 17.1284 -0.5698 -11.1182 -22.3079 -0.4436 -4.2736 11.8477 -2.7582 0.1322 -5.2392 0.1304 0.0868 -5.7440 1.6853 0.0733 -2.9980 -0.6693 -0.7310 -3.8372 -3.6343 -0.7733 21.0494 -1.1464 -0.9489 7.0385 -0.0000 0.0000 0.0000 -94.4088 18.7352 8.2368 19.9508 -30.5830 -5.5063 -0.0000 -0.0000 15.9595 22.8174 -12.7683 -5.3122 -7.1250 0.0000 -0.0000 -3.0865 16.1807 2.1072 -0.0000 0.0000 0.0000 89.7811 -15.7284 15.9292 -16.0135 25.5389 -3.6518 0.0000 0.0000 9.5697 -17.5784 -47.0233 13.0498 7.1250 -0.0000 -0.0000 42.0654 -75.0252 -30.9591
2.4251 16.2794 -0.6011 112.3990 -88.5455 -104.9930 0.0000 0.0000 0.0000 -20.0739 -23.7306 -1.2421 1.1905 6.9238 19.4897 -1.2319 22.4721 -21.1081 1.0739 6.5874 18.4987 0.0000 0.0000 0.0000 17.5307 20.9266 -1.6615 -0.9212 -6.1149 17.1181 -0.5637 -11.2093 -22.3426 -0.4160 -4.1398 11.4703 -2.7841 0.1270 -5.1245 0.1115 0.0717 -5.8393 1.6800 0.0680 -3.1611 -0.6756 -0.7121 -3.7190 -3.6275 -0.7553 21.0935 -1.1418 -0.9425 7.0322 0.0000 -0.0000 0.0000 -94.3956 18.9402 8.2239 19.9919 -30.6326 -5.5272 -0.0000 -0.0000 15.8475 22.8712 -12.6388 -5.2733 -7.1250 0.0000 -0.0000 -3.0430 16.3141 2.0687 0.0000 -0.0000 0.0000 89.8299 -15.9661 15.9025 -16.0269 25.5571 -3.6576 0.0000 0.0000 9.6228 -16.6383 -47.6312 12.4506 7.1250 -0.0000 -0.0000 44.8083 -75.0490 -33.1668
2.4219 16.2799 -0.6040 112.4160 -88.6250 -105.0840 0.0000 0.0000 0.0000 -20.0013 -23.7492 -1.1571 1.1910 6.9253 19.4941 -1.2202 22.4286 -21.1494 1.1228 6.7308 18.9203 0.0000 0.0000 0.0000 17.6914 21.0348 -1.5014 -0.9187 -6.1070 17.0950 -0.5528 -11.3929 -22.4282 -0.3691 -3.9022 10.8017 -2.7126 0.1350 -4.9905 0.1177 0.0747 -5.8918 1.6463 0.0689 -3.2904 -0.7364 -0.7142 -3.6504 -3.5837 -0.7664 21.1934 -1.1192 -0.9529 7.0530 -0.0000 -0.0000 0.0000 -94.3468 19.0927 8.1809 19.9338 -30.5625 -5.4976 -0.0000 -0.0000 15.7778 23.1100 -12.8644 -5.4275 -7.1250 0.0000 -0.0000 -2.8892 16.0469 1.9805 -0.0000 -0.0000 0.0000 89.8662 -16.1019 15.9255 -15.9960 25.5153 -3.6442 0.0000 0.0000 9.5130 -16.5631 -47.7463 12.4149 7.1250 -0.0000 -0.0000 45.2324 -75.0906 -33.5439
2.4184 16.2785 -0.6074 112.9980 -88.6694 -105.7120 0.0000 0.0000 0.0000 -19.9216 -23.6046 -1.1823 1.1916 6.9268 19.4988 -1.2037 22.3043 -21.0544 1.0798 6.6048 18.5498 0.0000 0.0000 0.0000 17.8047 21.2007 -1.3633 -0.9168 -6.1008 17.0773 -0.5530 -11.5166 -22.5565 -0.3867 -3.9932 11.0575 -2.6967 0.1408 -5.0040 0.1277 0.0845 -5.8615 1.6478 0.0732 -3.2516 -0.8121 -0.7147 -3.6617 -3.5075 -0.7729 21.2013 -1.0823 -0.9555 7.0585 0.0000 -0.0000 0.0000 -94.3487 19.0543 8.0632 19.9178 -30.5432 -5.4895 -0.0000 -0.0000 15.7743 23.1900 -12.8105 -5.4260 -7.1250 0.0000 -0.0000 -2.8312 16.0965 1.9376 0.0000 -0.0000 0.0000 89.8619 -16.0521 15.9588 -15.9488 25.4512 -3.6239 0.0000 0.0000 9.2177 -16.8002 -47.5687 12.5628 7.1250 -0.0000 -0.0000 44.4643 -75.0726 -32.9109
